HIERARCHY
ROOT HipCenter
{
    OFFSET 0.0 0.0 -0.0
    CHANNELS 6 Xposition Yposition Zposition Zrotation Xrotation Yrotation
    JOINT Spine
    {
        OFFSET 0.0 12.036871910095215 0.0
        CHANNELS 3 Zrotation Xrotation Yrotation
        JOINT ShoulderCenter
        {
            OFFSET 0.0 31.689437866210938 0.0
            CHANNELS 3 Zrotation Xrotation Yrotation
            JOINT LeftShoulder
            {
                OFFSET 16.907520294189453 0.0 0.0
                CHANNELS 3 Zrotation Xrotation Yrotation
                JOINT LeftElbow
                {
                    OFFSET 30.428173065185547 0.0 0.0
                    CHANNELS 3 Zrotation Xrotation Yrotation
                    JOINT LeftWrist
                    {
                        OFFSET 26.316612243652344 0.0 0.0
                        CHANNELS 3 Zrotation Xrotation Yrotation
                        JOINT LeftHand
                        {
                            OFFSET 2.591810703277588 0.0 0.0
                            CHANNELS 3 Zrotation Xrotation Yrotation
                            End Site
                            {
                                OFFSET 1.0367242097854614 0.0 0.0
                            }
                        }
                    }
                }
            }
            JOINT RightShoulder
            {
                OFFSET -16.907520294189453 0.0 0.0
                CHANNELS 3 Zrotation Xrotation Yrotation
                JOINT RightElbow
                {
                    OFFSET -30.428173065185547 0.0 0.0
                    CHANNELS 3 Zrotation Xrotation Yrotation
                    JOINT RightWrist
                    {
                        OFFSET -26.316612243652344 0.0 0.0
                        CHANNELS 3 Zrotation Xrotation Yrotation
                        JOINT RightHand
                        {
                            OFFSET -2.591810703277588 0.0 0.0
                            CHANNELS 3 Zrotation Xrotation Yrotation
                            End Site
                            {
                                OFFSET -1.0367242097854614 0.0 0.0
                            }
                        }
                    }
                }
            }
            End Site
            {
                OFFSET 0.0 12.675775527954102 0.0
            }
        }
    }
    JOINT LeftHip
    {
        OFFSET 16.76189422607422 0.0 0.0
        CHANNELS 3 Zrotation Xrotation Yrotation
        JOINT LeftKnee
        {
            OFFSET 0.0 -34.99939727783203 0.0
            CHANNELS 3 Zrotation Xrotation Yrotation
            JOINT LeftAnkle
            {
                OFFSET 0.0 -41.17267990112305 0.0
                CHANNELS 3 Zrotation Xrotation Yrotation
                JOINT LeftFoot
                {
                    OFFSET 0.0 -12.27814769744873 0.0
                    CHANNELS 3 Zrotation Xrotation Yrotation
                    End Site
                    {
                        OFFSET 0.0 0.0 4.911259174346924
                    }
                }
            }
        }
    }
    JOINT RightHip
    {
        OFFSET -16.76189422607422 0.0 0.0
        CHANNELS 3 Zrotation Xrotation Yrotation
        JOINT RightKnee
        {
            OFFSET 0.0 -34.99939727783203 0.0
            CHANNELS 3 Zrotation Xrotation Yrotation
            JOINT RightAnkle
            {
                OFFSET 0.0 -41.17267990112305 0.0
                CHANNELS 3 Zrotation Xrotation Yrotation
                JOINT RightFoot
                {
                    OFFSET 0.0 -12.27814769744873 0.0
                    CHANNELS 3 Zrotation Xrotation Yrotation
                    End Site
                    {
                        OFFSET 0.0 0.0 4.911259174346924
                    }
                }
            }
        }
    }
}
MOTION
Frames: 10
Frame Time: 0.03333333333333333
34.0 -11.399999618530273 149.8000030517578 -5.237486891510919 0.9508410336437237 -94.1938719581283 2.268885011245762 1.7975784944394528 -0.12312079295977903 2.063594785669172e-08 9.784492376864093e-08 4.523230498549526 96.29602207577659 -28.061651725997717 173.11138470736228 -1.8704997641655847e-06 -4.452960841256304e-06 33.09879051207193 179.99998325695987 -71.46374813016884 -146.1663086036536 4.770832022195274e-15 0.0 0.0 -97.82757576122235 -16.78967455593194 -174.6098173118252 -3.4417352895278345e-06 -1.1416819314214059e-06 -27.684753444460743 -179.99999706233555 -64.70635276023135 153.43085852105926 5.517382872562698e-32 -1.5902773407317584e-15 3.975693351829396e-15 5.2615268255065155 8.477370230354753 -24.467519200932635 0.0065832487961519 0.12290098342850951 -0.09912257744560839 48.360011219563624 -58.37726179985076 86.76839044513586 -6.361109362927033e-15 0.0 0.0 0.8154688002623013 -0.3030275540867212 16.0743097646286 -3.0185359882719403 25.204495161835396 17.867788271121636 -83.4654766457062 -55.068184431863585 -121.37883176739659 0.0 0.0 0.0
33.89999771118164 -11.399999618530273 149.89999389648438 -5.237486575666817 1.4261343222581655 -94.41185164417286 2.935155211719938 1.6654828393083891 -0.1202653136746178 2.3830867684539744e-07 -1.1436360028912076e-07 4.371494969443508 96.12714399454217 -28.1298583758486 173.24175537144413 -6.779912838330922e-07 -2.2268315237601233e-07 32.69962183997535 179.9999947735164 -74.00636470587142 -149.58443920118964 -2.3854160110976376e-15 3.1805546814635168e-15 -1.5902773407317584e-15 -97.98856975222473 -16.9819839123539 -174.4681181305282 1.1034472307101195e-06 -9.817512863426206e-07 -27.960021251036686 -179.99999147538375 -62.3513990148823 154.0843783088377 6.3611093629270335e-15 1.5902773407317582e-15 -3.578124016646457e-15 5.536398359887353 8.699620569207958 -24.46959855306965 0.034600140667879156 0.09763265915744482 -0.0774401115535598 48.85788444186179 -58.24879350604752 86.79971122965662 0.0 0.0 -3.1805546814635164e-15 1.2904730216579519 -0.2633696031294987 16.378557981246217 -3.095620999669842 25.358989316758045 18.12717210579393 -84.40618287642408 -54.285938020092715 -122.87492458471166 3.1805546814635176e-15 3.1805546814635176e-15 -6.361109362927035e-15
33.79999923706055 -11.399999618530273 150.10000610351562 -5.710596206629519 1.4249340409177549 -94.65320854012249 3.069274119200546 2.163595585337327 -0.14692286212054764 -4.8559801167583085e-08 4.4680440190737524e-07 4.2499848375689915 96.2246893717702 -28.996082421729152 173.3337271956099 -1.4232165552526608e-06 1.471734078588563e-06 32.99172897609658 179.999983690825 -73.51125597492006 -145.90827018999633 0.0 0.0 0.0 -98.1380625482836 -16.694653131469316 -174.73581247750272 1.5126916452201297e-06 4.283709341690435e-06 -27.667756288156085 -179.9999937403518 -62.897251469208356 154.29904857039804 -6.3611093629270335e-15 -1.7655625192200634e-31 3.1805546814635168e-15 5.270525749660947 9.338721557844815 -24.60819952845219 0.07833227757196802 0.10153932919844477 -0.07888113567252295 49.51789462090254 -57.997183126469004 86.88746953421591 -6.3611093629270335e-15 -1.7655625192200634e-31 3.1805546814635168e-15 1.0928222517210577 0.20056494376869338 16.604510468817146 -3.076749733416456 25.521518233021343 18.492922562771213 -83.97592752729413 -54.06325700820604 -122.82103194349078 0.0 -3.180554681463516e-15 0.0
33.70000076293945 -11.399999618530273 150.3000030517578 -5.758263311379237 1.4368566793292306 -94.86972693045853 3.2566122222671554 2.070962328253456 -0.14794657192895885 3.2565624733150696e-09 -2.513944823981017e-07 4.296820976886796 96.06542096110554 -28.984613615193776 173.32005034957416 2.9784312110236707e-07 -6.8254879937954614e-06 32.94709972081179 179.99999404482307 -72.14008503709039 -149.21115372937402 3.975693351829396e-16 5.517382872562698e-33 1.5902773407317584e-15 -98.30688496715509 -16.261786020233618 -174.60975471209477 1.032109397813589e-06 2.815362154205656e-06 -27.780506543371427 -179.99999672048395 -64.96707977396049 153.79655137655573 6.361109362927032e-15 -4.4139062980501586e-32 -7.95138670365879e-16 5.061102558790408 9.56163219237002 -24.78409644571169 0.11425544069505043 0.0916875994445161 -0.0704522572802785 50.20006917613705 -57.71680381807648 87.32182331554482 -6.361109362927035e-15 3.1805546814635183e-15 -6.361109362927035e-15 0.7816155542884599 0.226073114705265 16.868812736646607 -2.7100454369960856 25.584844445340007 18.499089012388144 -84.20627887986026 -54.00094188424443 -123.02349398466959 0.0 -3.180554681463516e-15 0.0
33.599998474121094 -11.399999618530273 150.5 -6.234494577678669 1.4356029394845617 -95.28671498959628 3.2043108259504653 2.556561206206783 -0.18424706637298408 -5.294450274893503e-08 -8.867623119486255e-08 4.372425554434322 96.15806328425411 -29.031284593661734 173.2365208760327 2.5872121471523246e-06 -1.1363355807485636e-06 33.30646356583301 -179.99999843727005 -71.33712504177758 -149.04955122917292 1.9878466759146984e-15 0.0 0.0 -98.44760778501555 -16.435789974540935 -175.05922086876575 -5.396830880912232e-06 6.968699255056477e-06 -27.24541652165917 179.99999706474213 -64.00083638622496 152.93898303100835 -6.3611093629270335e-15 3.089734408635111e-31 -5.565970692561154e-15 4.936523041069281 10.238181867963236 -25.075535069460063 0.0045980927411242555 0.00024264146884669637 -0.00017989068511904002 51.069438945313095 -57.27464146427131 88.16120686263547 6.3611093629270335e-15 -3.1805546814635168e-15 -6.3611093629270335e-15 0.7347644169506524 0.7058110164315153 16.792460938063506 -3.0974592965435366 25.58119064740362 18.626467531508606 -84.10405193563673 -54.49424079068484 -122.94658189077737 -3.1805546814635164e-15 3.1805546814635164e-15 8.827812596100317e-32
33.5 -11.5 150.6999969482422 -6.182926293039868 1.423784222988993 -95.31295736859269 3.392073365415595 2.342500564493635 -0.1678430815127495 -1.2620174723855668e-07 1.993476572869642e-07 4.2053303493389045 96.06620379680338 -30.3053040549968 173.3420774553137 -1.0936468493076735e-06 -3.094045946826179e-07 33.141854671803635 -179.99999489878473 -76.10811044951869 -147.38485672225457 1.5902773407317584e-15 0.0 0.0 -98.62446452891868 -16.792532069496843 -175.100444886491 -1.6333291487726505e-06 3.518180463323005e-06 -26.97007917418591 179.99999629427376 -69.8516615054301 152.76891943678748 0.0 -1.5902773407317584e-15 0.0 4.766428017302613 10.18589844647721 -24.928199091945533 -0.047529049555616945 0.12031891884709509 -0.09038919548182028 50.62794577642724 -57.08957675155996 87.07627782529808 0.0 3.1805546814635164e-15 0.0 0.5684440010884189 0.6389088965192422 16.842166770728806 -3.062309322241084 25.74621931850088 18.806828043411663 -84.385673579047 -54.36800640520148 -123.35503336810339 -9.541664044390549e-15 3.1805546814635164e-15 2.648343778830095e-31
33.39999771118164 -11.5 150.8000030517578 -6.654432550827722 1.4224666815673535 -95.53875567474793 3.3448313354448587 2.8123066834122845 -0.19183169017295681 -2.4604425672599557e-07 6.817455346101333e-08 4.252719764369241 96.11229043753838 -30.405544948459323 173.49849374678917 3.992121202567624e-06 -4.894013048836927e-06 33.2577515307206 -179.9999934390782 -70.59551818014762 -145.12465871007487 3.975693351829396e-15 -5.517382872562698e-32 -1.5902773407317584e-15 -98.7352409808944 -16.436834108976676 -175.33129002330946 4.965853468976407e-07 5.813486860291089e-07 -26.99917667859893 -179.99999751791134 -65.73329832435282 152.39216398471766 6.361109362927033e-15 1.3241718894150476e-31 2.385416011097637e-15 4.6573300673146 10.828353430864873 -25.144557991720287 -0.15103227137089145 0.04166873365876753 -0.03064360404375675 51.23378760621441 -56.84028610523773 87.09040506338084 0.0 0.0 -6.3611093629270335e-15 0.5190038106891138 1.1102668881833293 17.075209999946413 -3.1822908698147354 25.89407072380817 18.976075186098818 -84.58938251837347 -54.26837502077434 -123.67265089401434 0.0 -3.1805546814635168e-15 0.0
33.29999923706055 -11.5 150.89999389648438 -6.709844682462988 1.9120510818999674 -95.75393795483964 4.022229373642767 2.6005044319342017 -0.1874781180220244 1.6021495136289164e-07 -1.5503861407014263e-07 4.271031269285299 95.88181108656067 -31.20860082448469 173.22796577741124 1.7690097825452938e-06 -1.2848477569953088e-06 33.1539808894984 -179.99999747590195 -73.44597158533293 -144.9351992753163 2.3854160110976376e-15 3.310429723537619e-32 1.5902773407317584e-15 -98.98371322527017 -17.042053620710643 -175.00424234168295 -2.6828583577868587e-06 -3.3902228936920654e-08 -27.047589624496275 -179.9999925031332 -69.31773539414554 152.96890031428626 -6.3611093629270335e-15 -1.5902773407317584e-15 -8.827812596100317e-32 4.913611140763217 11.101551772557778 -25.093360305837034 -0.11437457743983509 0.03148148743059051 -0.022762564944959474 52.677822000292345 -57.016867190842135 88.26450247620409 -8.827812596100317e-32 3.1805546814635164e-15 3.1805546814635164e-15 0.6622496363257049 1.3424305547704678 17.539722011538114 -2.779140759090359 25.68671053491531 18.888289418755548 -84.61451675848424 -54.076333802652364 -123.90396304208393 3.1805546814635176e-15 0.0 0.0
33.19999694824219 -11.5 151.10000610351562 -7.184285034495797 1.4328072865986943 -95.9823047363653 3.486470768596776 3.0382151229683823 -0.20823544516637543 6.785394615020948e-11 -3.717056784633193e-07 4.337469675108441 95.99250098523426 -30.991424586787733 173.42611123484787 -5.729559534188156e-06 1.6455308635020316e-06 33.154329561123255 179.9999869362073 -74.42995049342535 -147.04291494356403 1.5902773407317584e-15 0.0 0.0 -98.92460185837366 -16.350223636235974 -175.24696440665167 -1.726689983239377e-06 3.405185424313616e-06 -26.94046146428052 -179.99999566278234 -65.71296922935362 152.57941725412044 0.0 0.0 -3.180554681463516e-15 4.160187720782594 11.693547686445793 -25.096984199777566 0.11519058615704772 -0.02818238348143697 0.020481951637880327 52.87237271281784 -56.850129908817614 88.67450763156148 0.0 0.0 -6.3611093629270335e-15 0.1475320269280348 1.6087845373235097 17.127600645427506 -3.0510389173179266 25.984657555186022 19.340079771714116 -84.7654970530573 -53.458264828711286 -124.55947864877461 1.5902773407317582e-15 -4.4139062980501586e-32 -3.1805546814635164e-15
33.099998474121094 -11.5 151.1999969482422 -7.184268104414614 1.9101243496750135 -96.19894667556521 4.157299937477054 2.928932471441511 -0.21223334735457836 -2.3496342902024086e-07 3.7365677746403486e-07 4.385534777770441 95.8345860216617 -31.846226868344832 173.32980654863394 2.541789109133975e-06 -1.5901857892060552e-07 33.428516312533034 179.99999961395142 -73.12966449362312 -146.63955048516505 -1.5902773407317584e-15 -4.4139062980501586e-32 3.1805546814635168e-15 -99.27288838084209 -17.013901499205964 -175.2766608166398 -3.28167821939319e-06 7.422153258500092e-06 -26.80051358737764 -179.99998583288792 -69.2047890998255 153.17142216466667 0.0 0.0 1.5902773407317584e-15 4.57348065555246 11.92695951980087 -25.33602245805067 0.008716978756584896 -0.12228391613927508 0.08788612321907296 53.48273251894658 -56.56596059809173 89.02623237745316 0.0 0.0 3.180554681463516e-15 0.5984163630495315 1.8188554611442058 17.45635841713768 -3.172783766480439 25.85452061154242 19.314848384558296 -84.73488661820709 -53.42125971690568 -124.67145532218221 1.5902773407317584e-15 3.1805546814635168e-15 -4.4139062980501586e-32
